<?xml version="1.0" standalone="no"?>
<!DOCTYPE svg PUBLIC "-//W3C//DTD SVG 20010904//EN"
 "http://www.w3.org/TR/2001/REC-SVG-20010904/DTD/svg10.dtd">
<svg version="1.0" xmlns="http://www.w3.org/2000/svg"
 width="300.000000pt" height="300.000000pt" viewBox="0 0 300.000000 300.000000"
 preserveAspectRatio="xMidYMid meet">
<metadata>
Created by potrace 1.14, written by Peter Selinger 2001-2017
</metadata>
<g transform="translate(0.000000,300.000000) scale(0.100000,-0.100000)"
fill="#000000" stroke="none">
<path d="M1690 2234 c-8 -1 -55 -8 -105 -14 -49 -7 -94 -15 -100 -18 -17 -10
-77 -13 -71 -4 9 15 -24 19 -118 15 -82 -3 -136 -19 -151 -42 -3 -6 -7 -35 -9
-66 -4 -50 -9 -60 -46 -96 -60 -58 -117 -153 -143 -234 -18 -58 -21 -93 -20
-200 1 -150 20 -248 109 -554 30 -102 57 -194 59 -205 5 -22 29 -42 75 -63
l34 -15 -30 -13 c-40 -17 -81 -55 -93 -88 -6 -15 -17 -27 -24 -27 -21 0 -118
-41 -150 -63 l-28 -19 -40 27 c-23 14 -47 24 -54 21 -8 -3 -15 0 -17 6 -5 15
-183 19 -218 6 -14 -5 -36 -12 -50 -15 -62 -11 -220 -120 -220 -151 0 -7 -4
-12 -8 -12 -13 0 -70 -121 -82 -172 -13 -56 -13 -153 1 -200 l10 -38 1399 0
1400 0 0 268 c0 147 -4 272 -8 277 -7 10 -99 57 -137 70 -85 30 -211 39 -295
21 -60 -13 -178 -77 -225 -123 -25 -24 -45 -37 -45 -29 0 21 -46 120 -61 133
-46 37 -127 68 -196 75 -13 1 -24 11 -28 25 -6 25 -80 73 -113 73 -43 0 -20
17 53 39 42 13 79 30 84 38 9 17 -7 119 -39 243 -12 47 -23 94 -25 105 -1 11
-5 27 -8 35 -21 51 -49 221 -53 315 -3 101 -1 114 22 162 30 62 67 80 182 89
42 3 80 9 84 12 6 7 12 62 8 72 -1 3 -4 17 -5 31 -5 40 -43 149 -62 178 -31
49 -108 93 -193 110 -50 10 -214 20 -250 15z"/>
</g>
</svg>
